<svg id="logo.svg" xmlns="http://www.w3.org/2000/svg" width="521" height="232.563" viewBox="0 0 521 232.563">
  <defs>
    <style>
      .cls-1 {
        fill: #fff;
        fill-rule: evenodd;
      }
    </style>
  </defs>
  <path id="illustration" class="cls-1" d="M162,241v-4H683v4H162Zm519.444-28.648H659.227V142.967l22.217-6.152v75.537Zm-2.735-89.141a12.854,12.854,0,0,1-3.828,2.291,13.078,13.078,0,0,1-9.3,0,12.842,12.842,0,0,1-3.828-2.291,10.212,10.212,0,0,1-2.563-3.417,10.193,10.193,0,0,1,0-8.477,10.592,10.592,0,0,1,2.563-3.452,12.48,12.48,0,0,1,3.828-2.324,13.064,13.064,0,0,1,9.3,0,12.492,12.492,0,0,1,3.828,2.324,11.049,11.049,0,0,1,2.6,3.452,9.865,9.865,0,0,1,0,8.477A10.642,10.642,0,0,1,678.709,123.211ZM614.35,206.473q-1.845,1.573-3.623,2.871a22.681,22.681,0,0,1-3.93,2.29,21.966,21.966,0,0,1-4.888,1.538,33.523,33.523,0,0,1-6.494.547,27.291,27.291,0,0,1-9.126-1.435,20.161,20.161,0,0,1-6.9-4,17.287,17.287,0,0,1-4.34-6.05,18.77,18.77,0,0,1-1.5-7.52,17.557,17.557,0,0,1,1.606-7.622,21.517,21.517,0,0,1,4.375-6.118,32.909,32.909,0,0,1,6.494-4.922,65.584,65.584,0,0,1,8-3.965q4.272-1.776,8.853-3.281t9.023-2.939l2.461-.547v-7.315a21.434,21.434,0,0,0-.718-5.947,11.139,11.139,0,0,0-1.982-4,7.258,7.258,0,0,0-3.076-2.222,11.471,11.471,0,0,0-4.068-.683,12.491,12.491,0,0,0-4.443.683,7.439,7.439,0,0,0-2.871,1.88,7.118,7.118,0,0,0-1.572,2.769,11.417,11.417,0,0,0-.479,3.349,17.8,17.8,0,0,1-.444,4.034,8.724,8.724,0,0,1-1.572,3.383,7.92,7.92,0,0,1-3.077,2.359,13.875,13.875,0,0,1-9.3.171,9.8,9.8,0,0,1-3.316-1.983,9.165,9.165,0,0,1-2.153-3.007,8.946,8.946,0,0,1-.786-3.726,11.086,11.086,0,0,1,2.6-7.075,22.66,22.66,0,0,1,7.007-5.64,40.236,40.236,0,0,1,10.186-3.725,54.1,54.1,0,0,1,12.2-1.333,56.193,56.193,0,0,1,13.569,1.435,28.2,28.2,0,0,1,9.4,4.033,16.33,16.33,0,0,1,5.468,6.289,18.825,18.825,0,0,1,1.778,8.272v55.029H614.35v-5.879Zm0-32.06a71.213,71.213,0,0,0-6.494,3.178,40.963,40.963,0,0,0-5.947,3.965,22.022,22.022,0,0,0-4.341,4.58,8.828,8.828,0,0,0-1.675,5.093,14.233,14.233,0,0,0,.547,4,11.372,11.372,0,0,0,1.5,3.281,8.349,8.349,0,0,0,2.153,2.222,4.447,4.447,0,0,0,2.564.82,10.815,10.815,0,0,0,5.5-1.674,66.753,66.753,0,0,0,6.186-4.205V174.413ZM537,162.518a18.062,18.062,0,0,0-.581-4.648,13.322,13.322,0,0,0-1.641-3.828,8.813,8.813,0,0,0-2.5-2.6,5.554,5.554,0,0,0-3.144-.957,13.456,13.456,0,0,0-4,.649,22.965,22.965,0,0,0-4.1,1.743,28.142,28.142,0,0,0-3.862,2.53,18.282,18.282,0,0,0-3.145,3.076v53.867H491.886V162.518a16.255,16.255,0,0,0-.65-4.648,14.079,14.079,0,0,0-1.743-3.828,9.194,9.194,0,0,0-2.529-2.6,5.244,5.244,0,0,0-2.94-.957,12.755,12.755,0,0,0-3.828.649,23.414,23.414,0,0,0-4.067,1.743,31.958,31.958,0,0,0-3.931,2.53,24.765,24.765,0,0,0-3.418,3.076v53.867H446.564V139H468.78v6.289a52.7,52.7,0,0,1,10.869-5.674,30.5,30.5,0,0,1,10.8-2.119,26.877,26.877,0,0,1,5.811.649,31.4,31.4,0,0,1,5.639,1.812,23.674,23.674,0,0,1,4.991,2.905,19.43,19.43,0,0,1,3.862,3.862,39.681,39.681,0,0,1,5.571-3.76,42.345,42.345,0,0,1,6.358-2.905,46.656,46.656,0,0,1,6.767-1.88,35.343,35.343,0,0,1,6.87-.683,22.311,22.311,0,0,1,8.921,1.811,23.79,23.79,0,0,1,7.383,4.956,23.458,23.458,0,0,1,5.025,7.383,22.53,22.53,0,0,1,1.845,9.092v51.611H537V162.518ZM426.57,212.352H404.353V142.967l22.217-6.152v75.537Zm-2.735-89.141a12.842,12.842,0,0,1-3.828,2.291,13.078,13.078,0,0,1-9.3,0,12.842,12.842,0,0,1-3.828-2.291,10.225,10.225,0,0,1-2.563-3.417,10.193,10.193,0,0,1,0-8.477,10.606,10.606,0,0,1,2.563-3.452,12.48,12.48,0,0,1,3.828-2.324,13.064,13.064,0,0,1,9.3,0,12.48,12.48,0,0,1,3.828,2.324,11.049,11.049,0,0,1,2.6,3.452,9.865,9.865,0,0,1,0,8.477A10.642,10.642,0,0,1,423.835,123.211Zm-61.624,38.9q0-5.673-1.846-8.647a5.487,5.487,0,0,0-4.785-2.974,11.944,11.944,0,0,0-3.315.581,27.02,27.02,0,0,0-4.17,1.675,43.087,43.087,0,0,0-4.478,2.563,34.7,34.7,0,0,0-4.17,3.179v53.867h-22.49V109.471l22.49-6.152v41.426a35.988,35.988,0,0,1,11.416-5.572,44.141,44.141,0,0,1,12.237-1.811,20.112,20.112,0,0,1,8.374,1.777,21.757,21.757,0,0,1,6.835,4.82,22.618,22.618,0,0,1,4.581,7.143,22.932,22.932,0,0,1,1.674,8.75v52.5H362.211V162.108Zm-67.025,45.22a25.32,25.32,0,0,1-9.194,4.887,46.015,46.015,0,0,1-13.706,1.778,37.524,37.524,0,0,1-11.622-1.573,27.747,27.747,0,0,1-8.1-4.067,24.768,24.768,0,0,1-5.469-5.571A64.551,64.551,0,0,1,243.3,196.7l12.647-4.854a21.97,21.97,0,0,0,5.6,9.331,12.8,12.8,0,0,0,9.092,3.384,13.8,13.8,0,0,0,4.238-.615,11.068,11.068,0,0,0,3.281-1.641,7.506,7.506,0,0,0,2.12-2.392,6.016,6.016,0,0,0,.752-2.94,10.56,10.56,0,0,0-.992-4.648,12.85,12.85,0,0,0-2.7-3.692,21.91,21.91,0,0,0-4.1-3.042,54.355,54.355,0,0,0-5.127-2.631q-4.308-1.914-8.614-4.17a42.874,42.874,0,0,1-7.758-5.161A24.39,24.39,0,0,1,246.172,167a17.188,17.188,0,0,1-2.119-8.648A18.413,18.413,0,0,1,246,149.872a19.529,19.529,0,0,1,5.435-6.563,25.648,25.648,0,0,1,8.374-4.238,36.5,36.5,0,0,1,10.767-1.5,41.648,41.648,0,0,1,9.57.991,26.318,26.318,0,0,1,7.348,2.871,23.542,23.542,0,0,1,5.572,4.546,37.965,37.965,0,0,1,4.375,6.016L284.59,156.5A17.009,17.009,0,0,0,282.1,151a11.538,11.538,0,0,0-3.008-2.906,7.781,7.781,0,0,0-3.076-1.162,20.7,20.7,0,0,0-2.7-.2,16.674,16.674,0,0,0-3.9.444,11.8,11.8,0,0,0-3.281,1.3,6.941,6.941,0,0,0-2.29,2.154,5.224,5.224,0,0,0-.854,2.939,7.647,7.647,0,0,0,1.093,3.965,13.58,13.58,0,0,0,3.008,3.452,27.627,27.627,0,0,0,4.546,3.042,63.192,63.192,0,0,0,5.708,2.734,95.539,95.539,0,0,1,9.126,4.273,42.109,42.109,0,0,1,7.827,5.332,25.815,25.815,0,0,1,5.5,6.6,16.014,16.014,0,0,1,2.085,8.134,25.17,25.17,0,0,1-1.572,8.955A18.059,18.059,0,0,1,295.186,207.328Zm-91.7-.855q-1.845,1.573-3.623,2.871a22.654,22.654,0,0,1-3.931,2.29,21.94,21.94,0,0,1-4.887,1.538,33.53,33.53,0,0,1-6.494.547,27.291,27.291,0,0,1-9.126-1.435,20.161,20.161,0,0,1-6.905-4,17.287,17.287,0,0,1-4.34-6.05,18.77,18.77,0,0,1-1.5-7.52,17.557,17.557,0,0,1,1.606-7.622,21.517,21.517,0,0,1,4.375-6.118,32.909,32.909,0,0,1,6.494-4.922,65.584,65.584,0,0,1,8-3.965q4.272-1.776,8.853-3.281t9.023-2.939l2.461-.547v-7.315a21.434,21.434,0,0,0-.718-5.947,11.139,11.139,0,0,0-1.982-4,7.258,7.258,0,0,0-3.076-2.222,11.471,11.471,0,0,0-4.068-.683,12.491,12.491,0,0,0-4.443.683,7.431,7.431,0,0,0-2.871,1.88,7.106,7.106,0,0,0-1.572,2.769,11.417,11.417,0,0,0-.479,3.349,17.8,17.8,0,0,1-.444,4.034,8.724,8.724,0,0,1-1.572,3.383,7.92,7.92,0,0,1-3.077,2.359,13.875,13.875,0,0,1-9.3.171,9.8,9.8,0,0,1-3.316-1.983,9.165,9.165,0,0,1-2.153-3.007,8.946,8.946,0,0,1-.786-3.726,11.086,11.086,0,0,1,2.6-7.075,22.66,22.66,0,0,1,7.007-5.64,40.236,40.236,0,0,1,10.186-3.725,54.1,54.1,0,0,1,12.2-1.333,56.2,56.2,0,0,1,13.569,1.435,28.2,28.2,0,0,1,9.4,4.033,16.33,16.33,0,0,1,5.468,6.289,18.825,18.825,0,0,1,1.778,8.272v55.029H203.483v-5.879Zm0-32.06a71.213,71.213,0,0,0-6.494,3.178,40.963,40.963,0,0,0-5.947,3.965,22.022,22.022,0,0,0-4.341,4.58,8.828,8.828,0,0,0-1.675,5.093,14.233,14.233,0,0,0,.547,4,11.372,11.372,0,0,0,1.5,3.281,8.349,8.349,0,0,0,2.153,2.222,4.447,4.447,0,0,0,2.564.82,10.815,10.815,0,0,0,5.5-1.674,66.753,66.753,0,0,0,6.186-4.205V174.413Zm-30.906,87.328a5.835,5.835,0,0,1,1.767-1.055,5.933,5.933,0,0,1,2.157-.39,6.116,6.116,0,0,1,2.18.39,5.775,5.775,0,0,1,1.79,1.055,5.266,5.266,0,0,1,1.217,1.561,4.181,4.181,0,0,1,0,3.809,5.253,5.253,0,0,1-1.217,1.561,5.758,5.758,0,0,1-1.79,1.056,6.116,6.116,0,0,1-2.18.39,5.933,5.933,0,0,1-2.157-.39,5.818,5.818,0,0,1-1.767-1.056,5.237,5.237,0,0,1-1.217-1.561,4.181,4.181,0,0,1,0-3.809A5.25,5.25,0,0,1,172.577,261.741Zm8.881,22.789v50.305h-9.73v-47.5l6.884-2.8h2.846ZM210.207,260.3v74.539h-9.776V263.1l6.976-2.8h2.8Zm28.749,0v74.539H229.18V263.1l6.976-2.8h2.8Zm28.29,60.31a7.376,7.376,0,0,0,.849,3.465,8.9,8.9,0,0,0,2.318,2.823,11.67,11.67,0,0,0,3.442,1.9,12.341,12.341,0,0,0,4.223.711,8.9,8.9,0,0,0,3.121-.619,14.731,14.731,0,0,0,3.236-1.721,20.242,20.242,0,0,0,2.983-2.548,14.75,14.75,0,0,0,2.318-3.1V285.54h9.777v49.295h-9.777v-9.226A20,20,0,0,1,286.5,329.6a24.834,24.834,0,0,1-4.222,3.282,22.4,22.4,0,0,1-4.682,2.2,14.466,14.466,0,0,1-4.567.8,15.26,15.26,0,0,1-6.058-1.216,15.992,15.992,0,0,1-4.958-3.282,15.259,15.259,0,0,1-3.327-4.842,14.649,14.649,0,0,1-1.216-5.944V285.54h9.776v35.066Zm55.324,6.816a19.448,19.448,0,0,0,3.328,2.892,12.472,12.472,0,0,0,3.488,1.652,13.979,13.979,0,0,0,3.924.528,10.775,10.775,0,0,0,3.718-.62,9.751,9.751,0,0,0,2.915-1.629,7.515,7.515,0,0,0,1.9-2.341,5.834,5.834,0,0,0,.689-2.708,6.872,6.872,0,0,0-1.125-3.924,12.167,12.167,0,0,0-2.983-3.03,24.963,24.963,0,0,0-4.246-2.455q-2.387-1.1-4.842-2.272T324.5,310.99a21.489,21.489,0,0,1-4.246-3.121,14.02,14.02,0,0,1-2.983-4.085,12.435,12.435,0,0,1-1.125-5.485,12.148,12.148,0,0,1,1.262-5.507,13.328,13.328,0,0,1,3.489-4.361,16.452,16.452,0,0,1,5.324-2.868,21.278,21.278,0,0,1,6.77-1.033,29.2,29.2,0,0,1,4.59.344,15.127,15.127,0,0,1,4.2,1.331,18.484,18.484,0,0,1,4.085,2.777,32.089,32.089,0,0,1,4.245,4.682l-3.58,3.213a20.925,20.925,0,0,0-6.265-6.839,13.379,13.379,0,0,0-7.413-2.249,13.091,13.091,0,0,0-3.809.528,10.032,10.032,0,0,0-2.984,1.422,6.724,6.724,0,0,0-1.927,2.089,4.976,4.976,0,0,0-.689,2.524,6.251,6.251,0,0,0,1.239,3.856,12.859,12.859,0,0,0,3.259,2.983,30.6,30.6,0,0,0,4.59,2.456q2.57,1.125,5.278,2.3t5.279,2.5a23.082,23.082,0,0,1,4.59,3.1,14.442,14.442,0,0,1,3.258,4.085,11.276,11.276,0,0,1,1.24,5.393A14.7,14.7,0,0,1,351,326.871a12.759,12.759,0,0,1-3.511,4.728,17.034,17.034,0,0,1-5.9,3.144,27.064,27.064,0,0,1-8.285,1.147,29.487,29.487,0,0,1-4.429-.344,18.926,18.926,0,0,1-4.59-1.331,21.237,21.237,0,0,1-4.635-2.777,24.95,24.95,0,0,1-4.521-4.682l3.993-3.625A41.061,41.061,0,0,0,322.57,327.422Zm47.659-41.676a12.549,12.549,0,0,0,4.361-4.039,21.081,21.081,0,0,0,2.662-5.9q0.963-3.349,1.7-7.114h2.8V285.54h11.061v4.131H381.75v34.745a5.174,5.174,0,0,0,.413,2.065,5.26,5.26,0,0,0,1.124,1.675,5.2,5.2,0,0,0,1.7,1.125,5.366,5.366,0,0,0,2.089.413,5.787,5.787,0,0,0,3.006-.8,9.26,9.26,0,0,0,2.364-2l2.433,1.653a14.94,14.94,0,0,1-5.233,5.37,15.255,15.255,0,0,1-8.032,1.973,10.277,10.277,0,0,1-4.292-.826,7.964,7.964,0,0,1-3.006-2.341,10.008,10.008,0,0,1-1.767-3.626,17.805,17.805,0,0,1-.574-4.681V289.671h-8.537v-2.433A13.78,13.78,0,0,0,370.229,285.746Zm46.879,9.111a42.683,42.683,0,0,1,3.075-3.947,26.73,26.73,0,0,1,3.443-3.305,16.505,16.505,0,0,1,3.694-2.249,9.66,9.66,0,0,1,3.879-.826,8.976,8.976,0,0,1,2.983.482,8.433,8.433,0,0,1,2.41,1.285,6.154,6.154,0,0,1,1.629,1.882,4.623,4.623,0,0,1,.6,2.272,4.378,4.378,0,0,1-1.492,3.6,6.4,6.4,0,0,1-4.154,1.216,8.247,8.247,0,0,1-2.639-.344,12.1,12.1,0,0,1-1.79-.78,17.58,17.58,0,0,0-1.629-.781,5.4,5.4,0,0,0-2.066-.344,3.863,3.863,0,0,0-1.95.574,9.115,9.115,0,0,0-1.974,1.606,22.911,22.911,0,0,0-2,2.433q-1.011,1.4-2.02,3.052v34.149h-9.73V285.54h9.73v9.317Zm36.3,18.451a24.385,24.385,0,0,1,5.1-3.58,53.041,53.041,0,0,1,6.173-2.8q3.26-1.239,6.724-2.2t6.77-1.79V299.86a20.826,20.826,0,0,0-.665-5.668,9.693,9.693,0,0,0-1.905-3.741,7,7,0,0,0-3.006-2.043,11.955,11.955,0,0,0-3.97-.619,10.744,10.744,0,0,0-4.04.642,6.286,6.286,0,0,0-2.455,1.7,5.7,5.7,0,0,0-1.216,2.409,11.749,11.749,0,0,0-.322,2.731,14.592,14.592,0,0,1-.206,2.479,5.835,5.835,0,0,1-.758,2.088,4.219,4.219,0,0,1-1.491,1.446,4.726,4.726,0,0,1-2.41.551,4.823,4.823,0,0,1-3.718-1.653,5.415,5.415,0,0,1-1.055-1.836,6.9,6.9,0,0,1-.368-2.3,7.358,7.358,0,0,1,1.607-4.544,14.016,14.016,0,0,1,4.314-3.648,24.856,24.856,0,0,1,6.334-2.433,31.671,31.671,0,0,1,7.619-.9,30.82,30.82,0,0,1,8.216.941,14.677,14.677,0,0,1,5.416,2.639,9.721,9.721,0,0,1,2.984,4.131,15.124,15.124,0,0,1,.918,5.37v37.224h-9.823v-6.747q-1.745,1.33-3.419,2.708a28.313,28.313,0,0,1-3.626,2.524,19.641,19.641,0,0,1-4.314,1.859,19.1,19.1,0,0,1-5.485.711,13.927,13.927,0,0,1-5.233-.941,11.766,11.766,0,0,1-3.993-2.593,11.145,11.145,0,0,1-2.524-3.9,13.327,13.327,0,0,1-.872-4.865,12.688,12.688,0,0,1,1.262-5.715A15.7,15.7,0,0,1,453.407,313.308Zm5.738,11.131a9.568,9.568,0,0,0,1.767,2.845,8.423,8.423,0,0,0,2.547,1.928,6.719,6.719,0,0,0,3.006.711,11.1,11.1,0,0,0,3.144-.436,15.643,15.643,0,0,0,2.892-1.17,25.116,25.116,0,0,0,2.8-1.721q1.4-.987,2.868-2.089V306.1q-2.111.688-4.383,1.561t-4.452,1.95a43.67,43.67,0,0,0-4.154,2.341,22.821,22.821,0,0,0-3.465,2.685,12.327,12.327,0,0,0-2.364,3.03,6.923,6.923,0,0,0-.872,3.35A8.951,8.951,0,0,0,459.145,324.439Zm50.114-38.693a12.549,12.549,0,0,0,4.361-4.039,21.081,21.081,0,0,0,2.662-5.9q0.963-3.349,1.7-7.114h2.8V285.54h11.061v4.131H520.78v34.745a5.174,5.174,0,0,0,.413,2.065,5.277,5.277,0,0,0,1.124,1.675,5.2,5.2,0,0,0,1.7,1.125,5.357,5.357,0,0,0,2.088.413,5.787,5.787,0,0,0,3.006-.8,9.26,9.26,0,0,0,2.364-2l2.433,1.653a14.932,14.932,0,0,1-5.233,5.37,15.255,15.255,0,0,1-8.032,1.973,10.269,10.269,0,0,1-4.291-.826,7.967,7.967,0,0,1-3.007-2.341,10.008,10.008,0,0,1-1.767-3.626,17.805,17.805,0,0,1-.574-4.681V289.671h-8.537v-2.433A13.78,13.78,0,0,0,509.259,285.746Zm38.457-24a5.835,5.835,0,0,1,1.767-1.055,5.929,5.929,0,0,1,2.157-.39,6.12,6.12,0,0,1,2.18.39,5.775,5.775,0,0,1,1.79,1.055,5.247,5.247,0,0,1,1.216,1.561,4.181,4.181,0,0,1,0,3.809,5.234,5.234,0,0,1-1.216,1.561,5.758,5.758,0,0,1-1.79,1.056,6.12,6.12,0,0,1-2.18.39,5.929,5.929,0,0,1-2.157-.39,5.818,5.818,0,0,1-1.767-1.056,5.237,5.237,0,0,1-1.217-1.561,4.181,4.181,0,0,1,0-3.809A5.25,5.25,0,0,1,547.716,261.741ZM556.6,284.53v50.305h-9.73v-47.5l6.884-2.8H556.6Zm23.815,7.688a25.439,25.439,0,0,1,8.262-5.623,26.116,26.116,0,0,1,10.442-2.065,27.967,27.967,0,0,1,10.395,1.882,25.7,25.7,0,0,1,8.239,5.163,23.4,23.4,0,0,1,7.39,17.189,28.394,28.394,0,0,1-1.951,10.534,26.771,26.771,0,0,1-5.439,8.629,25.676,25.676,0,0,1-8.239,5.829,25.066,25.066,0,0,1-10.395,2.134,27.187,27.187,0,0,1-10.442-1.973,25.542,25.542,0,0,1-8.262-5.37,24.649,24.649,0,0,1-7.367-17.717A26.962,26.962,0,0,1,575,300.571,25.708,25.708,0,0,1,580.412,292.218Zm4.75,24.211a28.445,28.445,0,0,0,3.3,8.239,17.16,17.16,0,0,0,5.324,5.554,12.922,12.922,0,0,0,7.16,2.042,9.883,9.883,0,0,0,5.3-1.491,14.345,14.345,0,0,0,4.176-3.994,19.276,19.276,0,0,0,2.731-5.852,25.422,25.422,0,0,0,.964-7.068,51.873,51.873,0,0,0-.918-10.029,25.586,25.586,0,0,0-2.983-8.147,14.638,14.638,0,0,0-13.494-7.481,8.939,8.939,0,0,0-4.774,1.423,14.2,14.2,0,0,0-4.062,3.9,20.748,20.748,0,0,0-2.822,5.783,22.906,22.906,0,0,0-1.056,7.023A42.7,42.7,0,0,0,585.162,316.429Zm65.743-21.893a32.91,32.91,0,0,1,9.272-7.5,21.108,21.108,0,0,1,9.822-2.5,10.424,10.424,0,0,1,4.842,1.17,12.593,12.593,0,0,1,3.948,3.19,15.781,15.781,0,0,1,2.662,4.751,16.952,16.952,0,0,1,.987,5.806v35.388h-9.823V301.1q0-4.864-2.2-7.389a7.153,7.153,0,0,0-5.645-2.525,11.918,11.918,0,0,0-3.305.5,18.942,18.942,0,0,0-3.534,1.446,28.743,28.743,0,0,0-3.58,2.249,32.244,32.244,0,0,0-3.443,2.914v36.536h-9.776V285.54h9.776v9Z" transform="translate(-162 -103.312)"/>
</svg>
